<svg id="Layer_1" data-name="Layer 1" xmlns="http://www.w3.org/2000/svg" viewBox="0 0 171 73.56"><defs><style>.cls-1{fill:#90d2c3;}.cls-2{fill:#fff;}.cls-3{fill:#221f1f;}</style></defs><title>mostly_ai</title><path class="cls-1" d="M117.41,47.78c5.4,7.58,14.83,14.14,25.16,14.88C163.91,64.18,171.5,47,171.5,30.52S163.82.7,144.29.72s-32.42,13.33-32.42,29.8a29.66,29.66,0,0,0,3.45,13.88Z" transform="translate(-0.5 -0.72)"/><path class="cls-2" d="M153.66,18.82v22a.42.42,0,0,1-.12.3l-.21.2a.4.4,0,0,1-.29.12h-2a.38.38,0,0,1-.29-.12l-.21-.2a.42.42,0,0,1-.12-.3v-22a.38.38,0,0,1,.12-.29l.21-.21a.38.38,0,0,1,.29-.12h2a.4.4,0,0,1,.29.12l.21.21A.38.38,0,0,1,153.66,18.82Zm-7.95,21.8a.39.39,0,0,1-.09.45l-.2.21a.42.42,0,0,1-.3.12H143a.38.38,0,0,1-.29-.12l-.21-.21a.38.38,0,0,1-.09-.13L141.14,38H128.75l-1.22,2.93a.38.38,0,0,1-.09.13l-.21.21a.4.4,0,0,1-.29.12h-2.18a.4.4,0,0,1-.29-.12l-.2-.21a.39.39,0,0,1-.09-.45l9.21-21.94a.71.71,0,0,1,.1-.14l.2-.2a.4.4,0,0,1,.29-.12h1.92a.42.42,0,0,1,.3.12l.2.2a.42.42,0,0,1,.09.14ZM139.8,34.8l-4.86-11.62L130.09,34.8Z" transform="translate(-0.5 -0.72)"/><path class="cls-3" d="M21.3,46.83a9.1,9.1,0,0,0-6.36,2.91c-1.28-1.9-3.45-2.91-6.3-2.91a8.09,8.09,0,0,0-4.89,1.81v-1l-.3-.3H.8l-.3.3V65l.3.3H3.45l.3-.3V52.39a6.66,6.66,0,0,1,4.89-2.45c3.06,0,4.48,1.69,4.48,5.33V65l.3.3h2.65l.3-.3V52.5a6.42,6.42,0,0,1,4.93-2.56c3,0,4.48,1.79,4.48,5.48V65l.29.3h2.66L29,65V55.24C29,49.66,26.43,46.83,21.3,46.83Z" transform="translate(-0.5 -0.72)"/><path class="cls-3" d="M42.74,46.83a9.53,9.53,0,1,0,9.41,9.53A9.37,9.37,0,0,0,42.74,46.83Zm0,16a6.09,6.09,0,0,1-6-6.42,6,6,0,1,1,12,0A6.09,6.09,0,0,1,42.74,62.78Z" transform="translate(-0.5 -0.72)"/><path class="cls-3" d="M63.78,54.46c-2.11-.51-3.94-1-3.94-2.36s1.28-2.16,3.1-2.16a9.45,9.45,0,0,1,5.49,1.76l.13.08.36-.35v-3l-.09,0a11.26,11.26,0,0,0-5.89-1.53c-3.77,0-6.5,2.22-6.5,5.27,0,3.84,3.42,4.7,6.43,5.45,2.24.56,4.18,1.05,4.18,2.65s-1.33,2.58-3.85,2.58A11.38,11.38,0,0,1,57,60.87l-.12-.09-.35.35v3l.08.06a12.69,12.69,0,0,0,6.6,1.67c4.2,0,7.25-2.39,7.25-5.68C70.45,56.07,66.75,55.18,63.78,54.46Z" transform="translate(-0.5 -0.72)"/><path class="cls-3" d="M80.53,47.39V43.26l-.28-.35H77.58l-.3.3v4.18H74.4l-.29.3v2.66l.29.3h2.88v8c0,4.61,2.29,7.25,6.27,7.25a9.17,9.17,0,0,0,4.21-1.15l.09,0V61.8l-.35-.35-.13.09a6.59,6.59,0,0,1-3.82,1.24c-1.92,0-3-1.58-3-4.33v-7.8h7l.3-.3V47.69l-.3-.3Z" transform="translate(-0.5 -0.72)"/><path class="cls-3" d="M102.62,61.41a4.21,4.21,0,0,1-3.08,1.37c-1.61,0-2.39-1.19-2.39-3.62V39.1l-.3-.29H94.2l-.3.29V59.34c0,4.22,2,6.54,5.64,6.54a7,7,0,0,0,3.5-1.15l.08-.06v-3l-.37-.37Z" transform="translate(-0.5 -0.72)"/><path class="cls-3" d="M124.19,47.39h-3l-.52.24-5.76,11.95-5.84-11.89,0-.06-.43-.22-3,0-.34.34,7.86,15.35-2.42,5c-1.16,2.23-2.55,3.22-4.5,3.22h-.08l-.3.3v2.3l.28.39h.1c3.89,0,5.67-1.81,7.3-4.73l11-21.7.06-.12Z" transform="translate(-0.5 -0.72)"/></svg>